<mxfile host="app.diagrams.net" agent="Mozilla/5.0 (Windows NT 10.0; Win64; x64) AppleWebKit/537.36 (KHTML, like Gecko) Chrome/127.0.0.0 Safari/537.36 OPR/113.0.0.0" version="24.7.13">
  <diagram name="PÃ¡gina-1" id="UQxjBlwx5JazLcBLWNhI">
    <mxGraphModel dx="1327" dy="719" grid="1" gridSize="10" guides="1" tooltips="1" connect="1" arrows="1" fold="1" page="1" pageScale="1" pageWidth="1169" pageHeight="827" math="0" shadow="0">
      <root>
        <mxCell id="0" />
        <mxCell id="1" parent="0" />
        <mxCell id="T6ZJ6BBvI9LYBsfBBkpv-1" value="Alfredo&lt;div&gt;&lt;br&gt;&lt;/div&gt;" style="shape=umlActor;verticalLabelPosition=bottom;verticalAlign=top;html=1;outlineConnect=0;" vertex="1" parent="1">
          <mxGeometry x="90" y="150" width="45" height="90" as="geometry" />
        </mxCell>
        <mxCell id="T6ZJ6BBvI9LYBsfBBkpv-2" value="" style="rounded=0;whiteSpace=wrap;html=1;" vertex="1" parent="1">
          <mxGeometry x="180" y="80" width="470" height="705" as="geometry" />
        </mxCell>
        <mxCell id="T6ZJ6BBvI9LYBsfBBkpv-3" value="Criar tarefa" style="ellipse;whiteSpace=wrap;html=1;" vertex="1" parent="1">
          <mxGeometry x="240" y="150" width="90" height="60" as="geometry" />
        </mxCell>
        <mxCell id="T6ZJ6BBvI9LYBsfBBkpv-4" value="Manipular Tarefas" style="ellipse;whiteSpace=wrap;html=1;" vertex="1" parent="1">
          <mxGeometry x="240" y="250" width="90" height="60" as="geometry" />
        </mxCell>
        <mxCell id="T6ZJ6BBvI9LYBsfBBkpv-5" value="Enviar Email" style="ellipse;whiteSpace=wrap;html=1;" vertex="1" parent="1">
          <mxGeometry x="410" y="150" width="90" height="60" as="geometry" />
        </mxCell>
        <mxCell id="T6ZJ6BBvI9LYBsfBBkpv-6" value="" style="endArrow=none;html=1;rounded=0;entryX=0;entryY=0.5;entryDx=0;entryDy=0;exitX=0.5;exitY=0.5;exitDx=0;exitDy=0;exitPerimeter=0;" edge="1" parent="1" source="T6ZJ6BBvI9LYBsfBBkpv-1" target="T6ZJ6BBvI9LYBsfBBkpv-3">
          <mxGeometry width="50" height="50" relative="1" as="geometry">
            <mxPoint x="130" y="220" as="sourcePoint" />
            <mxPoint x="170" y="160" as="targetPoint" />
          </mxGeometry>
        </mxCell>
        <mxCell id="T6ZJ6BBvI9LYBsfBBkpv-7" value="" style="endArrow=none;html=1;rounded=0;entryX=0;entryY=0.5;entryDx=0;entryDy=0;exitX=1;exitY=1;exitDx=0;exitDy=0;exitPerimeter=0;" edge="1" parent="1" source="T6ZJ6BBvI9LYBsfBBkpv-1" target="T6ZJ6BBvI9LYBsfBBkpv-4">
          <mxGeometry width="50" height="50" relative="1" as="geometry">
            <mxPoint x="150" y="250" as="sourcePoint" />
            <mxPoint x="200" y="200" as="targetPoint" />
          </mxGeometry>
        </mxCell>
        <mxCell id="T6ZJ6BBvI9LYBsfBBkpv-8" value="" style="endArrow=none;html=1;rounded=0;entryX=0;entryY=0.5;entryDx=0;entryDy=0;exitX=1;exitY=0.5;exitDx=0;exitDy=0;" edge="1" parent="1" source="T6ZJ6BBvI9LYBsfBBkpv-3" target="T6ZJ6BBvI9LYBsfBBkpv-5">
          <mxGeometry width="50" height="50" relative="1" as="geometry">
            <mxPoint x="330" y="200" as="sourcePoint" />
            <mxPoint x="380" y="150" as="targetPoint" />
          </mxGeometry>
        </mxCell>
        <mxCell id="T6ZJ6BBvI9LYBsfBBkpv-11" value="Excluir Tarefa" style="ellipse;whiteSpace=wrap;html=1;" vertex="1" parent="1">
          <mxGeometry x="370" y="380" width="90" height="60" as="geometry" />
        </mxCell>
        <mxCell id="T6ZJ6BBvI9LYBsfBBkpv-12" value="Editar Tarefa" style="ellipse;whiteSpace=wrap;html=1;" vertex="1" parent="1">
          <mxGeometry x="370" y="310" width="90" height="60" as="geometry" />
        </mxCell>
        <mxCell id="T6ZJ6BBvI9LYBsfBBkpv-13" value="Atualizar&amp;nbsp;&lt;div&gt;Tarefa&lt;/div&gt;" style="ellipse;whiteSpace=wrap;html=1;" vertex="1" parent="1">
          <mxGeometry x="370" y="240" width="90" height="60" as="geometry" />
        </mxCell>
        <mxCell id="T6ZJ6BBvI9LYBsfBBkpv-14" value="&amp;lt;&amp;lt;include&amp;gt;&amp;gt;" style="html=1;verticalAlign=bottom;labelBackgroundColor=none;endArrow=open;endFill=0;dashed=1;rounded=0;entryX=0;entryY=0.5;entryDx=0;entryDy=0;" edge="1" parent="1" target="T6ZJ6BBvI9LYBsfBBkpv-5">
          <mxGeometry width="160" relative="1" as="geometry">
            <mxPoint x="330" y="180" as="sourcePoint" />
            <mxPoint x="570" y="330" as="targetPoint" />
          </mxGeometry>
        </mxCell>
        <mxCell id="T6ZJ6BBvI9LYBsfBBkpv-15" value="" style="endArrow=none;html=1;rounded=0;exitX=1;exitY=0.5;exitDx=0;exitDy=0;entryX=0;entryY=0.5;entryDx=0;entryDy=0;" edge="1" parent="1" source="T6ZJ6BBvI9LYBsfBBkpv-4" target="T6ZJ6BBvI9LYBsfBBkpv-13">
          <mxGeometry width="50" height="50" relative="1" as="geometry">
            <mxPoint x="470" y="360" as="sourcePoint" />
            <mxPoint x="520" y="310" as="targetPoint" />
          </mxGeometry>
        </mxCell>
        <mxCell id="T6ZJ6BBvI9LYBsfBBkpv-16" value="" style="endArrow=none;html=1;rounded=0;exitX=1;exitY=1;exitDx=0;exitDy=0;entryX=0;entryY=0.5;entryDx=0;entryDy=0;" edge="1" parent="1" source="T6ZJ6BBvI9LYBsfBBkpv-4" target="T6ZJ6BBvI9LYBsfBBkpv-12">
          <mxGeometry width="50" height="50" relative="1" as="geometry">
            <mxPoint x="470" y="360" as="sourcePoint" />
            <mxPoint x="520" y="310" as="targetPoint" />
          </mxGeometry>
        </mxCell>
        <mxCell id="T6ZJ6BBvI9LYBsfBBkpv-17" value="Verificar&lt;div&gt;&amp;nbsp;Data&lt;/div&gt;" style="ellipse;whiteSpace=wrap;html=1;" vertex="1" parent="1">
          <mxGeometry x="370" y="450" width="90" height="60" as="geometry" />
        </mxCell>
        <mxCell id="T6ZJ6BBvI9LYBsfBBkpv-18" value="" style="endArrow=none;html=1;rounded=0;exitX=0.5;exitY=1;exitDx=0;exitDy=0;entryX=0;entryY=0.5;entryDx=0;entryDy=0;" edge="1" parent="1" source="T6ZJ6BBvI9LYBsfBBkpv-4" target="T6ZJ6BBvI9LYBsfBBkpv-11">
          <mxGeometry width="50" height="50" relative="1" as="geometry">
            <mxPoint x="470" y="360" as="sourcePoint" />
            <mxPoint x="520" y="310" as="targetPoint" />
          </mxGeometry>
        </mxCell>
        <mxCell id="T6ZJ6BBvI9LYBsfBBkpv-19" value="" style="endArrow=none;html=1;rounded=0;exitX=0;exitY=1;exitDx=0;exitDy=0;entryX=0;entryY=0.5;entryDx=0;entryDy=0;" edge="1" parent="1" source="T6ZJ6BBvI9LYBsfBBkpv-4" target="T6ZJ6BBvI9LYBsfBBkpv-17">
          <mxGeometry width="50" height="50" relative="1" as="geometry">
            <mxPoint x="320" y="530" as="sourcePoint" />
            <mxPoint x="370" y="480" as="targetPoint" />
          </mxGeometry>
        </mxCell>
        <mxCell id="T6ZJ6BBvI9LYBsfBBkpv-20" value="" style="endArrow=none;html=1;rounded=0;entryX=0.5;entryY=1;entryDx=0;entryDy=0;" edge="1" parent="1" source="T6ZJ6BBvI9LYBsfBBkpv-4" target="T6ZJ6BBvI9LYBsfBBkpv-3">
          <mxGeometry width="50" height="50" relative="1" as="geometry">
            <mxPoint x="240" y="260" as="sourcePoint" />
            <mxPoint x="290" y="210" as="targetPoint" />
          </mxGeometry>
        </mxCell>
      </root>
    </mxGraphModel>
  </diagram>
</mxfile>
